<?xml version="1.0" encoding="UTF-8"?>
<svg width="663px" height="500px" viewBox="0 0 663 500" version="1.1" xmlns="http://www.w3.org/2000/svg" xmlns:xlink="http://www.w3.org/1999/xlink">
    <!-- Generator: Sketch 47.1 (45422) - http://www.bohemiancoding.com/sketch -->
    <title>claptrap</title>
    <desc>Created with Sketch.</desc>
    <defs></defs>
    <g id="Page-1" stroke="none" stroke-width="1" fill="none" fill-rule="evenodd">
        <g id="claptrap" transform="translate(-11.000000, -8.000000)" fill="#007BFF">
            <g id="main-mailbox" transform="translate(224.000000, 32.000000)">
                <path d="M60,475.582638 L0,475.582638 L0,488.290306 L0,100.002026 C0,44.772432 44.7785454,0 99.9983956,0 L169.001604,0 C224.229193,0 269,44.7735663 269,100.002026 L269,488.290306 L269,475.582638 L210,475.582638 L210,461.004267 C210,446.08836 197.916061,434 183.009766,434 L86.9902342,434 C72.0847498,434 60,446.090222 60,461.004267 L60,475.582638 Z M62,116.003508 L62,132.996492 C62,140.17847 67.8223788,146 75.0046471,146 L194.995353,146 C202.186531,146 208,140.178131 208,132.996492 L208,116.003508 C208,108.82153 202.177621,103 194.995353,103 L75.0046471,103 C67.8134691,103 62,108.821869 62,116.003508 Z" id="Combined-Shape"></path>
            </g>
            <g id="eyes" transform="translate(323.000000, 147.000000)">
                <path d="M10,20 C15.5228475,20 20,15.5228475 20,10 C20,4.4771525 15.5228475,0 10,0 C4.4771525,0 0,4.4771525 0,10 C0,15.5228475 4.4771525,20 10,20 Z" id="left-eye"></path>
                <path d="M62,20 C67.5228475,20 72,15.5228475 72,10 C72,4.4771525 67.5228475,0 62,0 C56.4771525,0 52,4.4771525 52,10 C52,15.5228475 56.4771525,20 62,20 Z" id="right-eye"></path>
                <path d="M62,20 C67.5228475,20 72,15.5228475 72,10 C72,4.4771525 67.5228475,0 62,0 C56.4771525,0 52,4.4771525 52,10 C52,15.5228475 56.4771525,20 62,20 Z" id="right-eye-copy"></path>
            </g>
            <g id="claws">
                <g id="claw-left" transform="translate(113.500000, 163.000000) rotate(-90.000000) translate(-113.500000, -163.000000) translate(-49.500000, 49.500000)">
                    <path d="M22.7780791,137 C21.0280226,141.843513 18.2525424,146.400509 14.3832768,150.275319 C10.199548,154.436648 5.25016949,157.315468 0,159.020931 L39.5950282,198.560371 L31.9385311,198.560371 L31.9385311,226.325299 L106.247571,226.325299 L106.247571,198.560371 L84.4265537,198.560371 L22.7780791,137 L22.7780791,137 Z" id="Shape" transform="translate(53.123785, 181.662650) scale(-1, 1) translate(-53.123785, -181.662650) "></path>
                    <g id="arm-and-joint" transform="translate(89.000000, 0.000000)">
                        <g id="joint" transform="translate(0.000000, 82.000000)">
                            <ellipse id="Oval" cx="36.2042938" cy="36.8509482" rx="15.1762712" ry="15.1445062"></ellipse>
                            <path d="M72.4085876,36.8509482 C72.4085876,16.9311472 56.1658757,0.722432469 36.2042938,0.722432469 C16.2563842,0.722432469 0,16.9311472 0,36.8509482 C0,56.7707492 16.2427119,72.979464 36.2042938,72.979464 C56.1658757,72.979464 72.4085876,56.7707492 72.4085876,36.8509482 L72.4085876,36.8509482 Z M36.2042938,64.4248645 C20.9733333,64.4248645 8.57254237,52.0636729 8.57254237,36.8509482 C8.57254237,21.6382235 20.9733333,9.27703193 36.2042938,9.27703193 C51.4489266,9.27703193 63.8360452,21.6382235 63.8360452,36.8509482 C63.8360452,52.0636729 51.4352542,64.4248645 36.2042938,64.4248645 L36.2042938,64.4248645 Z" id="Shape"></path>
                        </g>
                        <path d="M228.922768,55.1977416 C227.500847,53.7787969 225.217571,53.7378658 223.781977,55.1431668 L190.722316,87.3968719 L166.385593,74.6536568 L160.000621,46.9023724 L176.298022,24.8268669 L220.131469,39.4665563 C220.801412,39.6848555 221.485028,39.7121429 222.127627,39.5620622 C223.317119,39.2891882 224.342542,38.4296351 224.739039,37.1744148 C225.408983,35.2779406 224.369887,33.2040983 222.469435,32.5764881 L176.10661,17.0908894 C174.602655,16.5724289 172.961977,17.1045331 172.03226,18.3733972 L157.197797,38.4296351 L144.961073,41.2265935 L146.683785,48.7033407 L61.0540677,68.3229803 C64.2260451,72.375159 66.6187005,77.1368101 67.8492089,82.4851402 C69.1617513,88.2154939 69.0113558,93.9322039 67.6577965,99.2941777 L153.766045,79.5517448 L155.488757,87.0284921 L168.518474,84.0405219 L168.49113,83.9859471 L189.655876,95.0782746 C190.462542,95.4875856 191.351243,95.5967352 192.171582,95.3920797 C192.814181,95.241999 193.429435,94.928194 193.894294,94.4506645 L228.840734,60.3277725 C230.29,58.9361152 230.317345,56.63033 228.922768,55.1977416 L228.922768,55.1977416 Z" id="Shape" transform="translate(145.501327, 58.094087) rotate(-12.000000) translate(-145.501327, -58.094087) "></path>
                    </g>
                </g>
                <g id="claw-right" transform="translate(578.238916, 277.000000) scale(-1, 1) rotate(-90.000000) translate(-578.238916, -277.000000) translate(457.238916, 181.500000)">
                    <ellipse id="Oval" cx="36.2042938" cy="77.8509482" rx="15.1762712" ry="15.1445062"></ellipse>
                    <path d="M72.4085876,77.8509482 C72.4085876,57.9311472 56.1658757,41.7224325 36.2042938,41.7224325 C16.2563842,41.7224325 0,57.9311472 0,77.8509482 C0,97.7707492 16.2427119,113.979464 36.2042938,113.979464 C56.1658757,113.979464 72.4085876,97.7707492 72.4085876,77.8509482 L72.4085876,77.8509482 Z M36.2042938,105.424865 C20.9733333,105.424865 8.57254237,93.0636729 8.57254237,77.8509482 C8.57254237,62.6382235 20.9733333,50.2770319 36.2042938,50.2770319 C51.4489266,50.2770319 63.8360452,62.6382235 63.8360452,77.8509482 C63.8360452,93.0636729 51.4352542,105.424865 36.2042938,105.424865 L36.2042938,105.424865 Z" id="Shape"></path>
                    <path d="M77.3169492,100.704145 C75.5668927,105.547658 72.7914124,110.104653 68.9221469,113.979464 C64.7384181,118.140792 59.7890395,121.019613 54.5388701,122.725075 L94.1338983,162.264516 L86.4774011,162.264516 L86.4774011,190.029444 L160.786441,190.029444 L160.786441,162.264516 L138.965424,162.264516 L77.3169492,100.704145 L77.3169492,100.704145 Z" id="Shape"></path>
                    <path d="M240.249944,38.8299682 C238.828023,37.4110235 236.544746,37.3700924 235.109153,38.7753934 L202.049492,71.0290986 L177.712768,58.2858834 L171.327797,30.534599 L187.625198,8.45909357 L231.458644,23.0987829 C232.128588,23.3170821 232.812203,23.3443695 233.454802,23.1942888 C234.644294,22.9214148 235.669718,22.0618618 236.066215,20.8066414 C236.736158,18.9101672 235.697062,16.8363249 233.79661,16.2087148 L187.433785,0.723116063 C185.929831,0.20465549 184.289153,0.736759762 183.359435,2.0056238 L168.524972,22.0618618 L156.288249,24.8588201 L158.01096,32.3355673 L72.3812429,51.9552069 C75.5532203,56.0073856 77.9458757,60.7690367 79.1763842,66.1173668 C80.4889266,71.8477205 80.3385311,77.5644305 78.9849718,82.9264044 L165.09322,63.1839715 L166.815932,70.6607187 L179.84565,67.6727485 L179.818305,67.6181737 L200.983051,78.7105013 C201.789718,79.1198123 202.678418,79.2289619 203.498757,79.0243064 C204.141356,78.8742257 204.75661,78.5604206 205.221469,78.0828911 L240.16791,43.9599992 C241.617175,42.5683418 241.64452,40.2625566 240.249944,38.8299682 L240.249944,38.8299682 Z" id="Shape"></path>
                </g>
            </g>
        </g>
    </g>
</svg>